<mxfile host="65bd71144e">
    <diagram name="Page-1" id="QbVM-qhq_BF2LXNoguQ5">
        <mxGraphModel dx="237" dy="508" grid="1" gridSize="10" guides="1" tooltips="1" connect="1" arrows="1" fold="1" page="1" pageScale="1" pageWidth="850" pageHeight="1100" math="0" shadow="0">
            <root>
                <mxCell id="0"/>
                <mxCell id="1" parent="0"/>
                <mxCell id="2" value="Root Aggregator" style="text;align=center;verticalAlign=middle;resizable=0;points=[];autosize=1;strokeColor=none;fillColor=none;fontStyle=0;fontSize=20;fontFamily=CMU Sans Serif;" vertex="1" parent="1">
                    <mxGeometry x="382.27000000000004" y="10" width="160" height="40" as="geometry"/>
                </mxCell>
                <mxCell id="3" value="" style="rounded=0;whiteSpace=wrap;html=1;fontStyle=0;fontFamily=CMU Sans Serif;" vertex="1" parent="1">
                    <mxGeometry x="150" y="117" width="623" height="449.36" as="geometry"/>
                </mxCell>
                <mxCell id="4" value="&lt;font color=&quot;#000000&quot; style=&quot;font-size: 18px;&quot;&gt;Cluster Aggregator as Learner (Flower Client)&lt;/font&gt;" style="rounded=0;whiteSpace=wrap;html=1;fillColor=#99FFFF;strokeColor=#006EAF;fontStyle=0;fontFamily=CMU Sans Serif;strokeWidth=2;verticalAlign=bottom;fontColor=#ffffff;" vertex="1" parent="1">
                    <mxGeometry x="158" y="124" width="608" height="436" as="geometry"/>
                </mxCell>
                <mxCell id="5" value="&lt;font color=&quot;#000000&quot; style=&quot;font-size: 18px;&quot;&gt;Cluster Aggregator Model Manager&lt;/font&gt;" style="rounded=0;whiteSpace=wrap;html=1;fillColor=#66B2FF;strokeColor=#66B2FF;fontStyle=0;fontFamily=CMU Sans Serif;strokeWidth=2;verticalAlign=bottom;" vertex="1" parent="1">
                    <mxGeometry x="165" y="131.36" width="595" height="400" as="geometry"/>
                </mxCell>
                <mxCell id="6" value="&lt;font color=&quot;#000000&quot; style=&quot;font-size: 18px;&quot;&gt;&lt;b&gt;Classic Aggregator&lt;/b&gt;&lt;/font&gt;" style="rounded=0;whiteSpace=wrap;html=1;fillColor=#9999FF;strokeColor=#000000;fontStyle=0;fontFamily=CMU Sans Serif;strokeWidth=1;verticalAlign=bottom;" vertex="1" parent="1">
                    <mxGeometry x="366" y="219" width="190" height="161" as="geometry"/>
                </mxCell>
                <mxCell id="7" value="" style="rounded=0;whiteSpace=wrap;html=1;fontStyle=0;fontFamily=CMU Sans Serif;fillColor=#cccccc;" vertex="1" parent="1">
                    <mxGeometry x="256.5" y="700" width="387" height="170" as="geometry"/>
                </mxCell>
                <mxCell id="8" value="&lt;span style=&quot;font-size: 18px;&quot;&gt;&lt;b style=&quot;&quot;&gt;&lt;font color=&quot;#ffffff&quot;&gt;L&lt;br&gt;E&lt;br&gt;G&lt;br&gt;E&lt;br&gt;N&lt;br&gt;D&lt;/font&gt;&lt;/b&gt;&lt;/span&gt;" style="rounded=0;whiteSpace=wrap;html=1;fillColor=#000000;strokeColor=#000000;fontStyle=0;fontFamily=CMU Sans Serif;strokeWidth=2;" vertex="1" parent="1">
                    <mxGeometry x="256.5" y="700" width="20" height="170" as="geometry"/>
                </mxCell>
                <mxCell id="9" value="&lt;b&gt;&lt;font face=&quot;CMU Sans Serif&quot; style=&quot;font-size: 20px;&quot; color=&quot;#000000&quot;&gt;A&lt;/font&gt;&lt;/b&gt;" style="ellipse;whiteSpace=wrap;html=1;aspect=fixed;fillColor=#FFFF33;strokeColor=#000000;strokeWidth=2;" vertex="1" parent="1">
                    <mxGeometry x="286.4999999999999" y="712.09" width="26.36" height="26.36" as="geometry"/>
                </mxCell>
                <mxCell id="10" value="&lt;b&gt;&lt;font face=&quot;CMU Sans Serif&quot; style=&quot;font-size: 18px;&quot; color=&quot;#000000&quot;&gt;B&lt;/font&gt;&lt;/b&gt;" style="whiteSpace=wrap;html=1;aspect=fixed;fillColor=#FF00FF;strokeColor=#000000;strokeWidth=2;shape=ellipse;perimeter=ellipsePerimeter;" vertex="1" parent="1">
                    <mxGeometry x="286.49999999999994" y="752.3699999999999" width="26.36" height="26.36" as="geometry"/>
                </mxCell>
                <mxCell id="11" value="&lt;b&gt;&lt;font face=&quot;CMU Sans Serif&quot; style=&quot;font-size: 18px;&quot; color=&quot;#000000&quot;&gt;C&lt;/font&gt;&lt;/b&gt;" style="whiteSpace=wrap;html=1;aspect=fixed;fillColor=#FFFFFF;strokeColor=#000000;strokeWidth=2;shape=ellipse;verticalAlign=middle;perimeter=ellipsePerimeter;" vertex="1" parent="1">
                    <mxGeometry x="286.49999999999994" y="793.7299999999999" width="26.36" height="26.36" as="geometry"/>
                </mxCell>
                <mxCell id="12" value="&lt;b&gt;&lt;font face=&quot;CMU Sans Serif&quot; style=&quot;font-size: 18px;&quot; color=&quot;#000000&quot;&gt;D&lt;/font&gt;&lt;/b&gt;" style="whiteSpace=wrap;html=1;aspect=fixed;fillColor=#FFFFFF;strokeColor=#000000;strokeWidth=2;shape=rhombus;perimeter=rhombusPerimeter;verticalAlign=middle;" vertex="1" parent="1">
                    <mxGeometry x="476.4999999999999" y="712.1" width="26.36" height="26.36" as="geometry"/>
                </mxCell>
                <mxCell id="13" value="&lt;b&gt;&lt;font face=&quot;CMU Sans Serif&quot; style=&quot;font-size: 18px;&quot; color=&quot;#000000&quot;&gt;D&lt;/font&gt;&lt;/b&gt;" style="whiteSpace=wrap;html=1;aspect=fixed;fillColor=#FFFFFF;strokeColor=#000000;strokeWidth=2;shape=mxgraph.basic.pentagon;verticalAlign=middle;" vertex="1" parent="1">
                    <mxGeometry x="476.5" y="754.69" width="26.36" height="26.36" as="geometry"/>
                </mxCell>
                <mxCell id="14" value="&lt;font style=&quot;font-size: 16px;&quot;&gt;&lt;b style=&quot;&quot;&gt;&lt;font color=&quot;#6600cc&quot;&gt;DataTag1&lt;/font&gt;&lt;font color=&quot;#000000&quot;&gt;.hash1&lt;/font&gt;&lt;/b&gt;&lt;/font&gt;" style="rounded=1;whiteSpace=wrap;html=1;fillColor=#FFFFFF;strokeColor=none;fontStyle=0;fontFamily=CMU Sans Serif;strokeWidth=2;verticalAlign=middle;" vertex="1" parent="1">
                    <mxGeometry x="321.5" y="714.32" width="135" height="21.91" as="geometry"/>
                </mxCell>
                <mxCell id="15" value="&lt;font style=&quot;font-size: 16px;&quot;&gt;&lt;b style=&quot;&quot;&gt;&lt;font color=&quot;#6600cc&quot;&gt;DataTag1&lt;/font&gt;&lt;/b&gt;&lt;font color=&quot;#000000&quot;&gt;.hash2&lt;/font&gt;&lt;/font&gt;" style="rounded=1;whiteSpace=wrap;html=1;fillColor=#FFFFFF;strokeColor=none;fontStyle=0;fontFamily=CMU Sans Serif;strokeWidth=2;verticalAlign=middle;" vertex="1" parent="1">
                    <mxGeometry x="321.5" y="754.59" width="135" height="21.91" as="geometry"/>
                </mxCell>
                <mxCell id="16" value="&lt;font color=&quot;#000000&quot; style=&quot;font-size: 16px;&quot;&gt;DataTag2.hash3&lt;/font&gt;" style="rounded=1;whiteSpace=wrap;html=1;fillColor=#FFFFFF;strokeColor=none;fontStyle=0;fontFamily=CMU Sans Serif;strokeWidth=2;verticalAlign=middle;" vertex="1" parent="1">
                    <mxGeometry x="321.5" y="795.9599999999999" width="135" height="21.91" as="geometry"/>
                </mxCell>
                <mxCell id="17" value="" style="group" vertex="1" connectable="0" parent="1">
                    <mxGeometry x="469.67999999999995" y="790" width="40" height="40" as="geometry"/>
                </mxCell>
                <mxCell id="18" value="" style="verticalLabelPosition=bottom;verticalAlign=top;html=1;shape=mxgraph.basic.6_point_star;fillColor=#FFFFFF;strokeColor=#000000;strokeWidth=2;" vertex="1" parent="17">
                    <mxGeometry y="3.409999999999968" width="40" height="33.18" as="geometry"/>
                </mxCell>
                <mxCell id="19" value="&lt;b&gt;&lt;font style=&quot;font-size: 18px;&quot; color=&quot;#000000&quot; face=&quot;CMU Sans Serif&quot;&gt;D&lt;/font&gt;&lt;/b&gt;" style="text;html=1;align=center;verticalAlign=middle;resizable=0;points=[];autosize=1;strokeColor=none;fillColor=none;" vertex="1" parent="17">
                    <mxGeometry width="40" height="40" as="geometry"/>
                </mxCell>
                <mxCell id="20" value="&lt;font color=&quot;#000000&quot;&gt;&lt;span style=&quot;font-size: 16px;&quot;&gt;Final Training Data&lt;/span&gt;&lt;/font&gt;" style="rounded=1;whiteSpace=wrap;html=1;fillColor=#FFFFFF;strokeColor=none;fontStyle=0;fontFamily=CMU Sans Serif;strokeWidth=2;verticalAlign=middle;" vertex="1" parent="1">
                    <mxGeometry x="390.18" y="839.2299999999999" width="143" height="21.91" as="geometry"/>
                </mxCell>
                <mxCell id="21" value="&lt;font color=&quot;#000000&quot; style=&quot;font-size: 16px;&quot;&gt;Parquet Format&lt;/font&gt;" style="rounded=1;whiteSpace=wrap;html=1;fillColor=#FFFFFF;strokeColor=none;fontStyle=0;fontFamily=CMU Sans Serif;strokeWidth=2;verticalAlign=middle;" vertex="1" parent="1">
                    <mxGeometry x="516.5" y="714.33" width="117" height="21.91" as="geometry"/>
                </mxCell>
                <mxCell id="22" value="&lt;font color=&quot;#000000&quot; style=&quot;font-size: 16px;&quot;&gt;Arrow Format&lt;/font&gt;" style="rounded=1;whiteSpace=wrap;html=1;fillColor=#FFFFFF;strokeColor=none;fontStyle=0;fontFamily=CMU Sans Serif;strokeWidth=2;verticalAlign=middle;" vertex="1" parent="1">
                    <mxGeometry x="516.5" y="756.91" width="117" height="21.91" as="geometry"/>
                </mxCell>
                <mxCell id="23" value="&lt;font color=&quot;#000000&quot; style=&quot;font-size: 16px;&quot;&gt;User Format&lt;/font&gt;" style="rounded=1;whiteSpace=wrap;html=1;fillColor=#FFFFFF;strokeColor=none;fontStyle=0;fontFamily=CMU Sans Serif;strokeWidth=2;verticalAlign=middle;" vertex="1" parent="1">
                    <mxGeometry x="516.5" y="800.41" width="117" height="21.91" as="geometry"/>
                </mxCell>
                <mxCell id="24" value="" style="group" vertex="1" connectable="0" parent="1">
                    <mxGeometry x="342.85999999999996" y="822.32" width="45" height="52.360000000000014" as="geometry"/>
                </mxCell>
                <mxCell id="25" value="" style="verticalLabelPosition=bottom;verticalAlign=top;html=1;shape=mxgraph.basic.6_point_star;fillColor=#FF0000;strokeColor=#000000;strokeWidth=2;" vertex="1" parent="24">
                    <mxGeometry y="9.589999999999968" width="40" height="33.18" as="geometry"/>
                </mxCell>
                <mxCell id="26" value="&lt;b&gt;&lt;font style=&quot;font-size: 18px;&quot; color=&quot;#000000&quot; face=&quot;CMU Sans Serif&quot;&gt;D&lt;/font&gt;&lt;/b&gt;" style="text;html=1;align=center;verticalAlign=middle;resizable=0;points=[];autosize=1;strokeColor=none;fillColor=none;" vertex="1" parent="1">
                    <mxGeometry x="342.85999999999996" y="829.32" width="40" height="40" as="geometry"/>
                </mxCell>
                <mxCell id="27" style="edgeStyle=orthogonalEdgeStyle;rounded=1;orthogonalLoop=1;jettySize=auto;html=1;exitX=0;exitY=0.75;exitDx=0;exitDy=0;entryX=0.5;entryY=0;entryDx=0;entryDy=0;curved=0;" edge="1" parent="1" source="30" target="49">
                    <mxGeometry relative="1" as="geometry"/>
                </mxCell>
                <mxCell id="28" style="edgeStyle=orthogonalEdgeStyle;rounded=1;orthogonalLoop=1;jettySize=auto;html=1;exitX=1;exitY=0.75;exitDx=0;exitDy=0;entryX=0.5;entryY=0;entryDx=0;entryDy=0;curved=0;" edge="1" parent="1" source="30" target="50">
                    <mxGeometry relative="1" as="geometry"/>
                </mxCell>
                <mxCell id="29" style="edgeStyle=orthogonalEdgeStyle;rounded=1;orthogonalLoop=1;jettySize=auto;html=1;exitX=1;exitY=0.25;exitDx=0;exitDy=0;entryX=0.5;entryY=0;entryDx=0;entryDy=0;curved=0;" edge="1" parent="1" source="30" target="52">
                    <mxGeometry relative="1" as="geometry"/>
                </mxCell>
                <mxCell id="30" value="&lt;b style=&quot;font-size: 40px;&quot;&gt;&lt;font style=&quot;color: rgb(255, 255, 0);&quot;&gt;M&lt;/font&gt;&lt;/b&gt;" style="rounded=1;whiteSpace=wrap;html=1;fontStyle=0;fontFamily=CMU Sans Serif;strokeWidth=1;" vertex="1" parent="1">
                    <mxGeometry x="431.88" y="50" width="47.73" height="47" as="geometry"/>
                </mxCell>
                <mxCell id="31" value="Cluster Aggregator" style="text;align=center;verticalAlign=middle;resizable=0;points=[];autosize=1;strokeColor=none;fillColor=none;fontStyle=0;fontSize=20;fontFamily=CMU Sans Serif;" vertex="1" parent="1">
                    <mxGeometry x="371.50000000000006" y="566.36" width="180" height="40" as="geometry"/>
                </mxCell>
                <mxCell id="32" value="&lt;span style=&quot;font-size: 18px;&quot;&gt;User ML Code - Model Manager&lt;/span&gt;" style="rounded=1;whiteSpace=wrap;html=1;fillColor=#FFFFFF;strokeColor=none;fontStyle=0;fontFamily=CMU Sans Serif;strokeWidth=2;align=center;verticalAlign=bottom;" vertex="1" parent="1">
                    <mxGeometry x="255.61" y="417" width="411.97" height="73" as="geometry"/>
                </mxCell>
                <mxCell id="33" value="&lt;b style=&quot;forced-color-adjust: none; font-family: &amp;quot;CMU Sans Serif&amp;quot;; font-style: normal; font-variant-ligatures: normal; font-variant-caps: normal; letter-spacing: normal; orphans: 2; text-align: center; text-indent: 0px; text-transform: none; widows: 2; word-spacing: 0px; -webkit-text-stroke-width: 0px; white-space: normal; text-decoration-thickness: initial; text-decoration-style: initial; text-decoration-color: initial; font-size: 40px;&quot;&gt;&lt;font style=&quot;forced-color-adjust: none; color: rgb(255, 102, 255);&quot;&gt;M&lt;/font&gt;&lt;/b&gt;" style="text;whiteSpace=wrap;html=1;labelBackgroundColor=none;" vertex="1" parent="1">
                    <mxGeometry x="431.88" y="420" width="47.73" height="70" as="geometry"/>
                </mxCell>
                <mxCell id="34" value="&lt;span style=&quot;font-size: 18px;&quot;&gt;getParameters()&lt;/span&gt;" style="rounded=1;whiteSpace=wrap;html=1;fillColor=#999999;strokeColor=none;fontStyle=0;fontFamily=CMU Sans Serif;strokeWidth=2;align=center;verticalAlign=middle;fontColor=#FFFFFF;" vertex="1" parent="1">
                    <mxGeometry x="271.29" y="430" width="133.64" height="30" as="geometry"/>
                </mxCell>
                <mxCell id="35" value="&lt;span style=&quot;font-size: 18px;&quot;&gt;setParameters()&lt;/span&gt;" style="rounded=1;whiteSpace=wrap;html=1;fillColor=#999999;strokeColor=none;fontStyle=0;fontFamily=CMU Sans Serif;strokeWidth=2;align=center;verticalAlign=middle;fontColor=#FFFFFF;" vertex="1" parent="1">
                    <mxGeometry x="519.61" y="430" width="133.64" height="30" as="geometry"/>
                </mxCell>
                <mxCell id="36" style="edgeStyle=orthogonalEdgeStyle;rounded=0;orthogonalLoop=1;jettySize=auto;html=1;exitX=0.5;exitY=0;exitDx=0;exitDy=0;" edge="1" parent="1" source="41" target="43">
                    <mxGeometry relative="1" as="geometry"/>
                </mxCell>
                <mxCell id="37" value="Update()" style="edgeLabel;html=1;align=center;verticalAlign=middle;resizable=0;points=[];labelBackgroundColor=light-dark(#9999FF,#EDEDED);" vertex="1" connectable="0" parent="36">
                    <mxGeometry x="0.1556" relative="1" as="geometry">
                        <mxPoint y="5" as="offset"/>
                    </mxGeometry>
                </mxCell>
                <mxCell id="38" style="edgeStyle=orthogonalEdgeStyle;rounded=1;orthogonalLoop=1;jettySize=auto;html=1;exitX=1;exitY=0.75;exitDx=0;exitDy=0;curved=0;" edge="1" parent="1" source="41" target="35">
                    <mxGeometry relative="1" as="geometry"/>
                </mxCell>
                <mxCell id="39" style="edgeStyle=orthogonalEdgeStyle;rounded=1;orthogonalLoop=1;jettySize=auto;html=1;exitX=1;exitY=0.25;exitDx=0;exitDy=0;entryX=1;entryY=0.5;entryDx=0;entryDy=0;dashed=1;strokeColor=#9933FF;strokeWidth=3;dashPattern=1 1;curved=0;endArrow=none;startFill=0;" edge="1" parent="1" source="41" target="56">
                    <mxGeometry relative="1" as="geometry">
                        <Array as="points">
                            <mxPoint x="730" y="324"/>
                            <mxPoint x="730" y="614"/>
                        </Array>
                    </mxGeometry>
                </mxCell>
                <mxCell id="40" style="edgeStyle=orthogonalEdgeStyle;rounded=1;orthogonalLoop=1;jettySize=auto;html=1;exitX=0;exitY=0.5;exitDx=0;exitDy=0;entryX=0;entryY=0.5;entryDx=0;entryDy=0;curved=0;dashed=1;dashPattern=1 1;strokeColor=#B266FF;strokeWidth=3;endArrow=none;startFill=0;" edge="1" parent="1" source="41" target="57">
                    <mxGeometry relative="1" as="geometry">
                        <Array as="points">
                            <mxPoint x="200" y="331"/>
                            <mxPoint x="200" y="614"/>
                        </Array>
                    </mxGeometry>
                </mxCell>
                <mxCell id="41" value="&lt;span style=&quot;font-size: 18px;&quot;&gt;handleAggregator()&lt;/span&gt;" style="rounded=1;whiteSpace=wrap;html=1;fillColor=#6600CC;strokeColor=none;fontStyle=0;fontFamily=CMU Sans Serif;strokeWidth=2;align=center;verticalAlign=middle;fontColor=#FFFFFF;" vertex="1" parent="1">
                    <mxGeometry x="377.18" y="316.36" width="168.64" height="30" as="geometry"/>
                </mxCell>
                <mxCell id="42" style="edgeStyle=orthogonalEdgeStyle;rounded=1;orthogonalLoop=1;jettySize=auto;html=1;entryX=0.75;entryY=1;entryDx=0;entryDy=0;curved=0;" edge="1" parent="1" source="43" target="49">
                    <mxGeometry relative="1" as="geometry"/>
                </mxCell>
                <mxCell id="43" value="&lt;span style=&quot;font-size: 18px;&quot;&gt;strategy &amp;amp;&lt;br&gt;context&lt;/span&gt;" style="rounded=1;whiteSpace=wrap;html=1;fillColor=#6600CC;strokeColor=none;fontStyle=0;fontFamily=CMU Sans Serif;strokeWidth=2;align=center;verticalAlign=middle;fontColor=#FFFFFF;" vertex="1" parent="1">
                    <mxGeometry x="413.03000000000003" y="230" width="97.14" height="50" as="geometry"/>
                </mxCell>
                <mxCell id="44" style="edgeStyle=orthogonalEdgeStyle;rounded=1;orthogonalLoop=1;jettySize=auto;html=1;entryX=0.004;entryY=0.692;entryDx=0;entryDy=0;exitX=0.39;exitY=0.99;exitDx=0;exitDy=0;exitPerimeter=0;curved=0;entryPerimeter=0;" edge="1" parent="1" source="46" target="34">
                    <mxGeometry relative="1" as="geometry"/>
                </mxCell>
                <mxCell id="45" style="edgeStyle=orthogonalEdgeStyle;rounded=1;orthogonalLoop=1;jettySize=auto;html=1;exitX=0.614;exitY=0;exitDx=0;exitDy=0;entryX=0;entryY=0.5;entryDx=0;entryDy=0;exitPerimeter=0;curved=0;" edge="1" parent="1" source="46" target="30">
                    <mxGeometry relative="1" as="geometry"/>
                </mxCell>
                <mxCell id="46" value="&lt;span style=&quot;font-size: 18px;&quot;&gt;getParameters()&lt;/span&gt;" style="rounded=1;whiteSpace=wrap;html=1;fillColor=#FFFFFF;strokeColor=none;fontStyle=0;fontFamily=CMU Sans Serif;strokeWidth=2;align=center;verticalAlign=middle;fontColor=#000000;" vertex="1" parent="1">
                    <mxGeometry x="170" y="150" width="133.64" height="30" as="geometry"/>
                </mxCell>
                <mxCell id="47" style="edgeStyle=orthogonalEdgeStyle;rounded=1;orthogonalLoop=1;jettySize=auto;html=1;entryX=0;entryY=0.5;entryDx=0;entryDy=0;curved=0;" edge="1" parent="1" source="49" target="43">
                    <mxGeometry relative="1" as="geometry"/>
                </mxCell>
                <mxCell id="48" style="edgeStyle=orthogonalEdgeStyle;rounded=1;orthogonalLoop=1;jettySize=auto;html=1;exitX=0.75;exitY=0;exitDx=0;exitDy=0;curved=0;" edge="1" parent="1" source="49" target="30">
                    <mxGeometry relative="1" as="geometry">
                        <Array as="points">
                            <mxPoint x="420" y="110"/>
                            <mxPoint x="456" y="110"/>
                        </Array>
                    </mxGeometry>
                </mxCell>
                <mxCell id="49" value="&lt;span style=&quot;font-size: 18px;&quot;&gt;evaluateModel()&lt;/span&gt;" style="rounded=1;whiteSpace=wrap;html=1;fillColor=#FFFFFF;strokeColor=none;fontStyle=0;fontFamily=CMU Sans Serif;strokeWidth=2;align=center;verticalAlign=middle;fontColor=#000000;" vertex="1" parent="1">
                    <mxGeometry x="320" y="150" width="133.64" height="30" as="geometry"/>
                </mxCell>
                <mxCell id="50" value="&lt;span style=&quot;font-size: 18px;&quot;&gt;fitModel()&lt;/span&gt;" style="rounded=1;whiteSpace=wrap;html=1;fillColor=#FFFFFF;strokeColor=none;fontStyle=0;fontFamily=CMU Sans Serif;strokeWidth=2;align=center;verticalAlign=middle;fontColor=#000000;" vertex="1" parent="1">
                    <mxGeometry x="462" y="150" width="133.64" height="30" as="geometry"/>
                </mxCell>
                <mxCell id="51" style="edgeStyle=orthogonalEdgeStyle;rounded=1;orthogonalLoop=1;jettySize=auto;html=1;entryX=1;entryY=0.5;entryDx=0;entryDy=0;curved=0;" edge="1" parent="1" source="52" target="35">
                    <mxGeometry relative="1" as="geometry"/>
                </mxCell>
                <mxCell id="52" value="&lt;span style=&quot;font-size: 18px;&quot;&gt;setParameters()&lt;/span&gt;" style="rounded=1;whiteSpace=wrap;html=1;fillColor=#FFFFFF;strokeColor=none;fontStyle=0;fontFamily=CMU Sans Serif;strokeWidth=2;align=center;verticalAlign=middle;fontColor=#000000;" vertex="1" parent="1">
                    <mxGeometry x="620" y="150" width="133.64" height="30" as="geometry"/>
                </mxCell>
                <mxCell id="53" style="edgeStyle=orthogonalEdgeStyle;rounded=0;orthogonalLoop=1;jettySize=auto;html=1;exitX=0;exitY=0.5;exitDx=0;exitDy=0;entryX=0.79;entryY=0.359;entryDx=0;entryDy=0;entryPerimeter=0;" edge="1" parent="1" source="35" target="33">
                    <mxGeometry relative="1" as="geometry"/>
                </mxCell>
                <mxCell id="54" style="edgeStyle=orthogonalEdgeStyle;rounded=0;orthogonalLoop=1;jettySize=auto;html=1;entryX=1;entryY=0.5;entryDx=0;entryDy=0;" edge="1" parent="1" target="34">
                    <mxGeometry relative="1" as="geometry">
                        <mxPoint x="431" y="446" as="sourcePoint"/>
                        <mxPoint x="405" y="435" as="targetPoint"/>
                    </mxGeometry>
                </mxCell>
                <mxCell id="55" value="&lt;b style=&quot;forced-color-adjust: none; font-family: &amp;quot;CMU Sans Serif&amp;quot;; font-style: normal; font-variant-ligatures: normal; font-variant-caps: normal; letter-spacing: normal; orphans: 2; text-align: center; text-indent: 0px; text-transform: none; widows: 2; word-spacing: 0px; -webkit-text-stroke-width: 0px; white-space: normal; text-decoration-thickness: initial; text-decoration-style: initial; text-decoration-color: initial; font-size: 40px;&quot;&gt;&lt;font style=&quot;forced-color-adjust: none; color: rgb(255, 102, 255);&quot;&gt;P&lt;/font&gt;&lt;/b&gt;" style="text;whiteSpace=wrap;html=1;labelBackgroundColor=none;" vertex="1" parent="1">
                    <mxGeometry x="578" y="346.36" width="30" height="43" as="geometry"/>
                </mxCell>
                <mxCell id="56" value="&lt;b style=&quot;font-size: 40px;&quot;&gt;&lt;font style=&quot;color: rgb(102, 255, 255);&quot;&gt;MD&lt;/font&gt;&lt;/b&gt;" style="rounded=1;whiteSpace=wrap;html=1;fontStyle=0;fontFamily=CMU Sans Serif;strokeWidth=1;" vertex="1" parent="1">
                    <mxGeometry x="598.9999999999999" y="590" width="80" height="48.5" as="geometry"/>
                </mxCell>
                <mxCell id="57" value="&lt;b style=&quot;font-size: 40px;&quot;&gt;&lt;font style=&quot;color: rgb(255, 102, 102);&quot;&gt;MD&lt;/font&gt;&lt;/b&gt;" style="rounded=1;whiteSpace=wrap;html=1;fontStyle=0;fontFamily=CMU Sans Serif;strokeWidth=1;" vertex="1" parent="1">
                    <mxGeometry x="255.61" y="590" width="80" height="48.5" as="geometry"/>
                </mxCell>
                <mxCell id="58" value="..." style="text;align=center;verticalAlign=middle;resizable=0;points=[];autosize=1;strokeColor=none;fillColor=none;fontStyle=1;fontSize=30;fontFamily=CMU Sans Serif;fontColor=#000000;" vertex="1" parent="1">
                    <mxGeometry x="425" y="590" width="50" height="50" as="geometry"/>
                </mxCell>
                <mxCell id="59" value="&lt;b style=&quot;forced-color-adjust: none; font-family: &amp;quot;CMU Sans Serif&amp;quot;; font-style: normal; font-variant-ligatures: normal; font-variant-caps: normal; letter-spacing: normal; orphans: 2; text-align: center; text-indent: 0px; text-transform: none; widows: 2; word-spacing: 0px; -webkit-text-stroke-width: 0px; white-space: normal; text-decoration-thickness: initial; text-decoration-style: initial; text-decoration-color: initial; font-size: 40px;&quot;&gt;&lt;font style=&quot;forced-color-adjust: none; color: rgb(255, 255, 0);&quot;&gt;P&lt;/font&gt;&lt;/b&gt;" style="text;whiteSpace=wrap;html=1;labelBackgroundColor=none;" vertex="1" parent="1">
                    <mxGeometry x="679" y="347" width="30" height="43" as="geometry"/>
                </mxCell>
                <mxCell id="60" style="edgeStyle=orthogonalEdgeStyle;rounded=1;orthogonalLoop=1;jettySize=auto;html=1;entryX=0.608;entryY=0.971;entryDx=0;entryDy=0;entryPerimeter=0;exitX=0.001;exitY=0.309;exitDx=0;exitDy=0;curved=0;exitPerimeter=0;" edge="1" parent="1" source="34" target="46">
                    <mxGeometry relative="1" as="geometry"/>
                </mxCell>
                <mxCell id="61" value="&lt;b style=&quot;forced-color-adjust: none; font-family: &amp;quot;CMU Sans Serif&amp;quot;; font-style: normal; font-variant-ligatures: normal; font-variant-caps: normal; letter-spacing: normal; orphans: 2; text-align: center; text-indent: 0px; text-transform: none; widows: 2; word-spacing: 0px; -webkit-text-stroke-width: 0px; white-space: normal; text-decoration-thickness: initial; text-decoration-style: initial; text-decoration-color: initial; font-size: 40px;&quot;&gt;&lt;font style=&quot;forced-color-adjust: none; color: rgb(255, 102, 255);&quot;&gt;P&lt;/font&gt;&lt;/b&gt;" style="text;whiteSpace=wrap;html=1;labelBackgroundColor=none;" vertex="1" parent="1">
                    <mxGeometry x="243.18" y="347" width="30" height="43" as="geometry"/>
                </mxCell>
                <mxCell id="62" style="edgeStyle=orthogonalEdgeStyle;rounded=0;orthogonalLoop=1;jettySize=auto;html=1;entryX=0.904;entryY=0.015;entryDx=0;entryDy=0;entryPerimeter=0;" edge="1" parent="1" source="50" target="41">
                    <mxGeometry relative="1" as="geometry"/>
                </mxCell>
                <mxCell id="63" value="&lt;b style=&quot;forced-color-adjust: none; font-family: &amp;quot;CMU Sans Serif&amp;quot;; font-style: normal; font-variant-ligatures: normal; font-variant-caps: normal; letter-spacing: normal; orphans: 2; text-align: center; text-indent: 0px; text-transform: none; widows: 2; word-spacing: 0px; -webkit-text-stroke-width: 0px; white-space: normal; text-decoration-thickness: initial; text-decoration-style: initial; text-decoration-color: initial; font-size: 40px;&quot;&gt;&lt;font style=&quot;forced-color-adjust: none; color: rgb(255, 255, 0);&quot;&gt;P&lt;/font&gt;&lt;/b&gt;" style="text;whiteSpace=wrap;html=1;labelBackgroundColor=none;" vertex="1" parent="1">
                    <mxGeometry x="679" y="67" width="30" height="43" as="geometry"/>
                </mxCell>
                <mxCell id="64" value="&lt;b style=&quot;forced-color-adjust: none; font-family: &amp;quot;CMU Sans Serif&amp;quot;; font-style: normal; font-variant-ligatures: normal; font-variant-caps: normal; letter-spacing: normal; orphans: 2; text-align: center; text-indent: 0px; text-transform: none; widows: 2; word-spacing: 0px; -webkit-text-stroke-width: 0px; white-space: normal; text-decoration-thickness: initial; text-decoration-style: initial; text-decoration-color: initial; font-size: 40px;&quot;&gt;&lt;font style=&quot;forced-color-adjust: none; color: rgb(255, 102, 255);&quot;&gt;P&lt;/font&gt;&lt;/b&gt;" style="text;whiteSpace=wrap;html=1;labelBackgroundColor=none;" vertex="1" parent="1">
                    <mxGeometry x="244" y="71" width="30" height="43" as="geometry"/>
                </mxCell>
                <mxCell id="65" style="edgeStyle=orthogonalEdgeStyle;rounded=1;orthogonalLoop=1;jettySize=auto;html=1;exitX=0;exitY=0.25;exitDx=0;exitDy=0;entryX=0.387;entryY=0.056;entryDx=0;entryDy=0;entryPerimeter=0;curved=0;" edge="1" parent="1" source="30" target="46">
                    <mxGeometry relative="1" as="geometry"/>
                </mxCell>
                <mxCell id="66" value="&lt;b style=&quot;forced-color-adjust: none; font-family: &amp;quot;CMU Sans Serif&amp;quot;; font-style: normal; font-variant-ligatures: normal; font-variant-caps: normal; letter-spacing: normal; orphans: 2; text-align: center; text-indent: 0px; text-transform: none; widows: 2; word-spacing: 0px; -webkit-text-stroke-width: 0px; white-space: normal; text-decoration-thickness: initial; text-decoration-style: initial; text-decoration-color: initial; font-size: 40px;&quot;&gt;&lt;font style=&quot;forced-color-adjust: none;&quot;&gt;P&lt;/font&gt;&lt;/b&gt;" style="text;whiteSpace=wrap;html=1;labelBackgroundColor=none;fontColor=#FF6666;" vertex="1" parent="1">
                    <mxGeometry x="215" y="586" width="30" height="43" as="geometry"/>
                </mxCell>
                <mxCell id="67" value="&lt;b style=&quot;forced-color-adjust: none; font-family: &amp;quot;CMU Sans Serif&amp;quot;; font-style: normal; font-variant-ligatures: normal; font-variant-caps: normal; letter-spacing: normal; orphans: 2; text-align: center; text-indent: 0px; text-transform: none; widows: 2; word-spacing: 0px; -webkit-text-stroke-width: 0px; white-space: normal; text-decoration-thickness: initial; text-decoration-style: initial; text-decoration-color: initial; font-size: 40px;&quot;&gt;&lt;font style=&quot;forced-color-adjust: none;&quot;&gt;P&lt;/font&gt;&lt;/b&gt;" style="text;whiteSpace=wrap;html=1;labelBackgroundColor=none;fontColor=#00FFFF;" vertex="1" parent="1">
                    <mxGeometry x="686" y="586" width="30" height="43" as="geometry"/>
                </mxCell>
                <mxCell id="68" value="" style="rounded=0;whiteSpace=wrap;html=1;fontStyle=0;fontFamily=CMU Sans Serif;labelBackgroundColor=none;fillColor=none;dashed=1;strokeColor=#808080;" vertex="1" parent="1">
                    <mxGeometry x="140" y="110" width="640" height="540" as="geometry"/>
                </mxCell>
                <mxCell id="69" value="Cluster 1" style="text;align=center;verticalAlign=middle;resizable=0;points=[];autosize=1;strokeColor=none;fillColor=none;fontStyle=0;fontSize=20;fontFamily=CMU Sans Serif;" vertex="1" parent="1">
                    <mxGeometry x="405.74000000000007" y="650" width="100" height="40" as="geometry"/>
                </mxCell>
            </root>
        </mxGraphModel>
    </diagram>
</mxfile>
